<svg xmlns="http://www.w3.org/2000/svg" width="750" height="750" viewBox="0 0 750 750">
  <defs>
    <style>
      .cls-1 {
        fill: #fff;
        fill-rule: evenodd;
      }
    </style>
  </defs>
  <path id="Adnan" class="cls-1" d="M141.87,419.018q-0.783-22.5-3.261-45.13t-5.087-45.257a281.042,281.042,0,0,1-1.565-45.261,221.835,221.835,0,0,0-26.479,5.723q-12.913,3.643-26.217,7.283,5.215,1.823,10.565,3.905a16.255,16.255,0,0,1,8.217,6.761,8.886,8.886,0,0,1,.783,7.54A94.222,94.222,0,0,1,93.87,327.2a117.665,117.665,0,0,0-5.217,12.871q-1.565,4.168-3.783,11.448t-5.087,16.124q-2.874,8.847-5.87,18.341t-6,17.684q-3,8.193-5.869,14.306a37.815,37.815,0,0,1-4.956,8.453,11.8,11.8,0,0,1-8.609,3.644,67.965,67.965,0,0,1-8.348-.779,12.865,12.865,0,0,1-4.7-1.691,20.645,20.645,0,0,1-3.783-3.253q-1.957-2.077-5.609-5.461,1.3,9.623,2.348,18.858a70.094,70.094,0,0,0,4.7,18.337,18.18,18.18,0,0,0,3.522,6.114,12.115,12.115,0,0,0,5.87,3.509,19.9,19.9,0,0,0,6,.652,10.513,10.513,0,0,0,5.478-1.692,17.757,17.757,0,0,0,4.7-4.943,111.081,111.081,0,0,0,6.13-11.963q2.739-6.241,5.609-12.227a246.933,246.933,0,0,0,10.957-24.711,22.617,22.617,0,0,1,5.87,5.983,26.15,26.15,0,0,0,5.87,6.244,86.631,86.631,0,0,1,9-6.5,87.257,87.257,0,0,0,9-6.5,195.25,195.25,0,0,1,.522,28.481q-0.783,14.177-1.826,28.481,7.042-.262,14.087-0.909t14.087-1.952A189.079,189.079,0,0,0,141.87,419.018Zm-37.957-21.267q-3.265-3-6.913-5.869-3.656,2.874-7.043,5.739t-7.044,5.739a303.769,303.769,0,0,0,10.3-29.867,302.829,302.829,0,0,1,10.3-29.867q1.3,15.131,3.652,30t3.652,30Q107.171,400.754,103.913,397.751Zm88.3-116.467q-2.091,26.606-1.826,52.821t0.783,52.56q0,4.176.13,10.695t0,13.434q-0.133,6.914-.521,13.172a48.755,48.755,0,0,1-1.435,9.912A16.02,16.02,0,0,1,187,438.965a8.988,8.988,0,0,1-4.7,3.261,15.9,15.9,0,0,1-8.739-4.435,27.275,27.275,0,0,1-6-8.608,30.651,30.651,0,0,1-2.608-10.434A27.757,27.757,0,0,1,166,408.576a16.8,16.8,0,0,1,4.957-7.825,13.415,13.415,0,0,1,9.26-3.13,79.875,79.875,0,0,0-4.043-7.565q-2.22-3.649-4.3-7.3a18.2,18.2,0,0,0-14.479,4.043,26.316,26.316,0,0,0-8.478,12.39A25.321,25.321,0,0,0,148,404.4a35.38,35.38,0,0,0,.13,5.217q0.783,8.607,2.479,18a72.762,72.762,0,0,0,5.478,17.607A48.325,48.325,0,0,0,166.261,459.7a32.325,32.325,0,0,0,16.565,8.347,34.641,34.641,0,0,0,15.783-10.955,61.067,61.067,0,0,0,9.782-17.477,96.3,96.3,0,0,0,5.087-21.52q1.431-11.6,1.7-23.085t-0.261-22.041q-0.526-10.565-.522-18.39v-25.3q0-12.52.522-25.3Zm161.609,101.73A27.34,27.34,0,0,0,349,377.275a45.214,45.214,0,0,0-6.261,5.217,64.289,64.289,0,0,1-6.261,5.478,50.581,50.581,0,0,0,5.218,5.477,31.155,31.155,0,0,1,4.956,5.739q2.868-2.868,6-5.478t6-5.478A18.416,18.416,0,0,1,353.826,383.014Zm23.87,53.6a46.754,46.754,0,0,1-10.826,3.131,63.089,63.089,0,0,1-11.609.782q-6-.129-12-0.13-4.439,0-9.652.391a81.307,81.307,0,0,1-10.305.13,69.212,69.212,0,0,1-9.782-1.173,19.2,19.2,0,0,1-8.348-3.783,18.335,18.335,0,0,1-5.087-5.608,20.306,20.306,0,0,1-1.957-6.912q-1.308-8.608-2.608-16.825a78.737,78.737,0,0,1-.783-17.085,6.634,6.634,0,0,0,0-2.609,5.539,5.539,0,0,0-1.565-2.347q-2.611-2.606-6.783-1.435a33.654,33.654,0,0,0-9.261,4.565,84.445,84.445,0,0,0-10.434,8.347q-5.351,4.958-10.044,9.782t-8.478,8.868q-3.785,4.047-5.348,5.869a99.015,99.015,0,0,1,13.3-58.69q-7.042,4.957-13.826,10.173t-13.565,10.434a59.093,59.093,0,0,0-3.391,18.129q-0.263,9.261.13,18.65t0.652,18.651a66.055,66.055,0,0,1-2.087,18.389,5.254,5.254,0,0,0,.522,4.043,10.3,10.3,0,0,0,2.87,3,23.988,23.988,0,0,1,4.956,0q1.566,0,5.479-2.608a101.578,101.578,0,0,0,8.739-6.652q4.824-4.041,10.3-8.869t10.3-9.39q4.824-4.561,8.609-8.347l5.348-5.348h0.783a44.837,44.837,0,0,0-.131,11.347,49.725,49.725,0,0,0,2.739,11.608,42.433,42.433,0,0,0,5.478,10.434,31.4,31.4,0,0,0,8.087,7.825,18.575,18.575,0,0,0,7.305,2.478,63.063,63.063,0,0,0,9.13.652q4.7,0,9.392-.261t8.347-.26h9.653a87.866,87.866,0,0,0,9.652-.522,30.881,30.881,0,0,0,12.13-4.3,49.669,49.669,0,0,0,10.565-8.478,59.9,59.9,0,0,0,8.218-10.955,47.284,47.284,0,0,0,5.087-12A31.536,31.536,0,0,1,377.7,436.617Zm174-.346a35.445,35.445,0,0,1-9.913,2.983,56.021,56.021,0,0,1-10.826.518q-5.613-.257-11.348-0.261-4.176,0-9.131.261t-9.913.13a58.949,58.949,0,0,1-9.652-1.035,18.971,18.971,0,0,1-8.087-3.5,18.637,18.637,0,0,1-7.043-11.273,46.041,46.041,0,0,1-.653-15.17,74.417,74.417,0,0,1,3.522-15.684A79.971,79.971,0,0,1,484.13,380.4h-0.782q-6,3.632-12,6.872t-12,6.871a50.434,50.434,0,0,1-4.565-7q-1.957-3.632-3.522-7.263-8.609,2.594-18,6.354a101.467,101.467,0,0,0-17.739,9.2,73.707,73.707,0,0,0-14.739,12.574,38.277,38.277,0,0,0-8.74,16.462q-1.308,5.7-2.217,11.016t-1.956,11.021a14.578,14.578,0,0,0,3.391,12.183q4.17,5.19,11.478,5.188a62.715,62.715,0,0,0,28.435-7.389,69.526,69.526,0,0,0,22.7-18.8h0.521q0.783,2.336,1.566,5.185t1.565,5.706a36.775,36.775,0,0,0,1.956,5.441,13.813,13.813,0,0,0,2.739,4.149,17.974,17.974,0,0,0,8.74,5.058A59.2,59.2,0,0,0,482.3,465.05a111.461,111.461,0,0,0,12,.13q6-.262,10.435-0.261T514,465.05a64.785,64.785,0,0,0,9.261-.392,32.126,32.126,0,0,0,12.782-3.888,53.8,53.8,0,0,0,11.479-8.294,48.438,48.438,0,0,0,8.739-11.021,36.658,36.658,0,0,0,4.565-12.313A29.236,29.236,0,0,1,551.7,436.271ZM445.522,411.315q-3.913,5.613-8.218,10.695a66.372,66.372,0,0,1-9.391,9.13,36.13,36.13,0,0,1-11.609,6.129l-2.869-.521-2.087-2.348v-0.261a30.733,30.733,0,0,1,6.391-12.129,52.1,52.1,0,0,1,10.565-9.39,77.8,77.8,0,0,1,12.653-6.913,112.1,112.1,0,0,1,12.913-4.695A89.507,89.507,0,0,0,445.522,411.315Zm245.087-28.3a27.4,27.4,0,0,0-4.826-5.739,45.1,45.1,0,0,0-6.261,5.217,64.289,64.289,0,0,1-6.261,5.478,50.57,50.57,0,0,0,5.217,5.477,31.123,31.123,0,0,1,4.957,5.739q2.867-2.868,6-5.478t6-5.478A18.416,18.416,0,0,1,690.609,383.014Zm23.869,53.6a46.74,46.74,0,0,1-10.826,3.131,63.089,63.089,0,0,1-11.609.782q-6-.129-12-0.13-4.439,0-9.652.391a81.294,81.294,0,0,1-10.3.13,69.244,69.244,0,0,1-9.783-1.173,19.2,19.2,0,0,1-8.347-3.783,18.322,18.322,0,0,1-5.087-5.608,20.306,20.306,0,0,1-1.957-6.912q-1.308-8.608-2.609-16.825a78.738,78.738,0,0,1-.782-17.085,6.634,6.634,0,0,0,0-2.609,5.549,5.549,0,0,0-1.565-2.347q-2.611-2.606-6.783-1.435a33.641,33.641,0,0,0-9.261,4.565,84.525,84.525,0,0,0-10.435,8.347q-5.349,4.958-10.043,9.782t-8.478,8.868q-3.786,4.047-5.348,5.869a99.015,99.015,0,0,1,13.3-58.69q-7.044,4.957-13.826,10.173l-13.565,10.434a59.124,59.124,0,0,0-3.392,18.129q-0.262,9.261.131,18.65t0.652,18.651a66.13,66.13,0,0,1-2.087,18.389,5.254,5.254,0,0,0,.522,4.043,10.306,10.306,0,0,0,2.869,3,24,24,0,0,1,4.957,0q1.564,0,5.478-2.608a101.423,101.423,0,0,0,8.739-6.652q4.824-4.041,10.305-8.869t10.3-9.39q4.824-4.561,8.609-8.347l5.348-5.348h0.782a44.838,44.838,0,0,0-.13,11.347,49.725,49.725,0,0,0,2.739,11.608,42.433,42.433,0,0,0,5.478,10.434,31.383,31.383,0,0,0,8.087,7.825,18.57,18.57,0,0,0,7.3,2.478,63.077,63.077,0,0,0,9.131.652q4.695,0,9.391-.261t8.348-.26h9.652a87.839,87.839,0,0,0,9.652-.522,30.885,30.885,0,0,0,12.131-4.3,49.669,49.669,0,0,0,10.565-8.478A59.9,59.9,0,0,0,719.3,441.7a47.248,47.248,0,0,0,5.087-12A31.525,31.525,0,0,1,714.478,436.617Z"/>
</svg>
