<svg xmlns="http://www.w3.org/2000/svg" width="500" height="200" viewBox="0 0 500 200">
  <defs>
    <style>
      .cls-1 {
        fill: #fff;
        fill-rule: evenodd;
      }
    </style>
  </defs>
  <path id="Adnan" class="cls-1" d="M93.62,117.1q-0.538-15.519-2.242-31.13t-3.5-31.217A194.483,194.483,0,0,1,86.8,23.536,152.1,152.1,0,0,0,68.6,27.483Q59.715,30,50.566,32.507q3.587,1.257,7.266,2.693a11.189,11.189,0,0,1,5.651,4.664,6.146,6.146,0,0,1,.538,5.2,65.1,65.1,0,0,1-3.408,8.7,81.3,81.3,0,0,0-3.588,8.878q-1.076,2.876-2.6,7.9t-3.5,11.121q-1.976,6.1-4.036,12.651t-4.126,12.2q-2.064,5.652-4.036,9.868a26.115,26.115,0,0,1-3.408,5.831,8.1,8.1,0,0,1-5.92,2.513,46.692,46.692,0,0,1-5.741-.537,8.825,8.825,0,0,1-3.229-1.167,14.164,14.164,0,0,1-2.6-2.243q-1.345-1.434-3.857-3.767,0.9,6.637,1.614,13.008a48.469,48.469,0,0,0,3.229,12.648,12.551,12.551,0,0,0,2.422,4.217,8.322,8.322,0,0,0,4.036,2.42,13.632,13.632,0,0,0,4.126.45,7.216,7.216,0,0,0,3.767-1.167,12.218,12.218,0,0,0,3.229-3.41,76.725,76.725,0,0,0,4.216-8.251q1.884-4.305,3.857-8.434A170.559,170.559,0,0,0,52,111.448a15.6,15.6,0,0,1,4.036,4.127,18,18,0,0,0,4.036,4.307,59.641,59.641,0,0,1,6.189-4.487,59.918,59.918,0,0,0,6.189-4.484,135.009,135.009,0,0,1,.359,19.646q-0.538,9.779-1.256,19.645,4.844-.182,9.687-0.627t9.687-1.346A130.77,130.77,0,0,0,93.62,117.1Zm-26.1-14.67q-2.245-2.065-4.754-4.048-2.514,1.982-4.844,3.958T53.078,106.3a209.9,209.9,0,0,0,7.086-20.6A209.387,209.387,0,0,1,67.25,65.1q0.9,10.437,2.511,20.691t2.512,20.691Q69.758,104.5,67.519,102.432ZM128.243,22.1q-1.437,18.352-1.255,36.434t0.538,36.255q0,2.88.089,7.377t0,9.266q-0.091,4.769-.358,9.086a33.738,33.738,0,0,1-.987,6.837,11.047,11.047,0,0,1-1.615,3.508,6.171,6.171,0,0,1-3.229,2.249,10.91,10.91,0,0,1-6.009-3.058,18.813,18.813,0,0,1-4.126-5.938,21.179,21.179,0,0,1-1.794-7.2,19.2,19.2,0,0,1,.717-7.017,11.586,11.586,0,0,1,3.409-5.4,9.206,9.206,0,0,1,6.368-2.16,55.323,55.323,0,0,0-2.78-5.217q-1.527-2.517-2.96-5.038a12.487,12.487,0,0,0-9.957,2.789,18.154,18.154,0,0,0-5.83,8.546,17.5,17.5,0,0,0-.628,3.6,24.5,24.5,0,0,0,.09,3.6q0.538,5.937,1.7,12.415a50.274,50.274,0,0,0,3.767,12.144,33.356,33.356,0,0,0,7,9.986,22.211,22.211,0,0,0,11.391,5.758,23.814,23.814,0,0,0,10.853-7.557,42.154,42.154,0,0,0,6.728-12.055,66.645,66.645,0,0,0,3.5-14.844q0.984-8,1.166-15.923t-0.179-15.2q-0.363-7.287-.359-12.685V55.2q0-8.636.359-17.453Zm111.135,70.17a18.887,18.887,0,0,0-3.319-3.958,31.124,31.124,0,0,0-4.306,3.6,44.024,44.024,0,0,1-4.3,3.778,34.764,34.764,0,0,0,3.588,3.778,21.45,21.45,0,0,1,3.408,3.958q1.972-1.977,4.126-3.778t4.126-3.778A12.7,12.7,0,0,1,239.378,92.267Zm16.414,36.974a32.039,32.039,0,0,1-7.445,2.159,43.21,43.21,0,0,1-7.983.54q-4.128-.089-8.252-0.09-3.052,0-6.637.27a55.818,55.818,0,0,1-7.086.09,47.391,47.391,0,0,1-6.728-.81,13.179,13.179,0,0,1-5.74-2.609,12.618,12.618,0,0,1-3.5-3.868,14.023,14.023,0,0,1-1.346-4.768q-0.9-5.937-1.794-11.605a54.481,54.481,0,0,1-.538-11.785,4.572,4.572,0,0,0,0-1.8,3.829,3.829,0,0,0-1.076-1.619,4.439,4.439,0,0,0-4.665-.99,23.1,23.1,0,0,0-6.368,3.149,58.115,58.115,0,0,0-7.176,5.758q-3.678,3.42-6.906,6.747t-5.831,6.117q-2.6,2.793-3.677,4.049A68.461,68.461,0,0,1,172.2,77.693q-4.843,3.42-9.508,7.017l-9.329,7.2a40.887,40.887,0,0,0-2.332,12.505q-0.18,6.388.09,12.864t0.448,12.865a45.7,45.7,0,0,1-1.435,12.684,3.634,3.634,0,0,0,.359,2.789,7.1,7.1,0,0,0,1.973,2.069,16.447,16.447,0,0,1,3.409,0q1.075,0,3.767-1.8a69.858,69.858,0,0,0,6.01-4.588q3.317-2.787,7.086-6.118t7.086-6.477q3.318-3.145,5.92-5.757l3.678-3.689h0.538a31.012,31.012,0,0,0-.09,7.827,34.366,34.366,0,0,0,1.884,8.007,29.261,29.261,0,0,0,3.767,7.2,21.581,21.581,0,0,0,5.561,5.4,12.735,12.735,0,0,0,5.023,1.709,43.235,43.235,0,0,0,6.279.45q3.23,0,6.458-.18t5.741-.18h6.637a60.157,60.157,0,0,0,6.638-.359,21.2,21.2,0,0,0,8.342-2.969,34.235,34.235,0,0,0,7.265-5.848,41.344,41.344,0,0,0,5.651-7.556,32.693,32.693,0,0,0,3.5-8.277A21.7,21.7,0,0,1,255.792,129.241ZM375.448,129a24.322,24.322,0,0,1-6.817,2.058,38.431,38.431,0,0,1-7.445.357q-3.859-.177-7.8-0.18-2.871,0-6.279.18t-6.817.09a40.451,40.451,0,0,1-6.637-.714,13.021,13.021,0,0,1-5.561-2.418,12.862,12.862,0,0,1-4.844-7.776,31.829,31.829,0,0,1-.448-10.464,51.354,51.354,0,0,1,2.421-10.818,55.1,55.1,0,0,1,3.768-8.853h-0.539q-4.128,2.5-8.252,4.74t-8.252,4.74a34.874,34.874,0,0,1-3.139-4.827q-1.346-2.5-2.422-5.01Q300.461,91.9,294,94.491a69.673,69.673,0,0,0-12.2,6.347,50.739,50.739,0,0,0-10.136,8.673,26.423,26.423,0,0,0-6.009,11.355q-0.9,3.935-1.525,7.6t-1.346,7.6a10.077,10.077,0,0,0,2.333,8.4,9.557,9.557,0,0,0,7.893,3.579,43.023,43.023,0,0,0,19.554-5.1,47.844,47.844,0,0,0,15.607-12.966h0.359q0.538,1.611,1.076,3.576t1.077,3.936a25.355,25.355,0,0,0,1.345,3.753,9.509,9.509,0,0,0,1.884,2.862,12.343,12.343,0,0,0,6.009,3.489,40.588,40.588,0,0,0,7.8,1.251,76.231,76.231,0,0,0,8.252.09q4.125-.181,7.176-0.18t6.368,0.09a44.419,44.419,0,0,0,6.369-.27,22.05,22.05,0,0,0,8.79-2.682,37,37,0,0,0,7.893-5.721,33.415,33.415,0,0,0,6.01-7.6,25.346,25.346,0,0,0,3.139-8.493A20.127,20.127,0,0,1,375.448,129Zm-73.014-17.214q-2.691,3.872-5.65,7.377a45.81,45.81,0,0,1-6.459,6.3,24.839,24.839,0,0,1-7.983,4.228l-1.973-.36-1.435-1.619v-0.18a21.226,21.226,0,0,1,4.395-8.367,35.855,35.855,0,0,1,7.265-6.477,53.463,53.463,0,0,1,8.7-4.768,77.086,77.086,0,0,1,8.88-3.239A61.881,61.881,0,0,0,302.434,111.788ZM470.975,92.267a18.887,18.887,0,0,0-3.319-3.958,31.124,31.124,0,0,0-4.306,3.6,44.024,44.024,0,0,1-4.305,3.778,34.764,34.764,0,0,0,3.588,3.778,21.45,21.45,0,0,1,3.408,3.958q1.973-1.977,4.126-3.778t4.126-3.778A12.7,12.7,0,0,1,470.975,92.267Zm16.414,36.974a32.039,32.039,0,0,1-7.445,2.159,43.21,43.21,0,0,1-7.983.54q-4.128-.089-8.252-0.09-3.053,0-6.637.27a55.818,55.818,0,0,1-7.086.09,47.391,47.391,0,0,1-6.728-.81,13.179,13.179,0,0,1-5.74-2.609,12.631,12.631,0,0,1-3.5-3.868,14.023,14.023,0,0,1-1.346-4.768q-0.9-5.937-1.794-11.605a54.481,54.481,0,0,1-.538-11.785,4.572,4.572,0,0,0,0-1.8,3.829,3.829,0,0,0-1.076-1.619,4.439,4.439,0,0,0-4.665-.99,23.1,23.1,0,0,0-6.368,3.149,58.115,58.115,0,0,0-7.176,5.758q-3.678,3.42-6.906,6.747t-5.831,6.117q-2.6,2.793-3.677,4.049a68.461,68.461,0,0,1,9.149-40.483q-4.844,3.42-9.508,7.017l-9.329,7.2a40.887,40.887,0,0,0-2.332,12.505q-0.18,6.388.09,12.864t0.448,12.865a45.7,45.7,0,0,1-1.435,12.684,3.634,3.634,0,0,0,.359,2.789,7.1,7.1,0,0,0,1.973,2.069,16.447,16.447,0,0,1,3.409,0q1.077,0,3.767-1.8a69.858,69.858,0,0,0,6.01-4.588q3.316-2.787,7.086-6.118t7.086-6.477q3.318-3.145,5.92-5.757l3.678-3.689h0.538a31.012,31.012,0,0,0-.09,7.827,34.366,34.366,0,0,0,1.884,8.007,29.261,29.261,0,0,0,3.767,7.2,21.581,21.581,0,0,0,5.561,5.4,12.735,12.735,0,0,0,5.023,1.709,43.235,43.235,0,0,0,6.279.45q3.23,0,6.458-.18t5.741-.18h6.637a60.157,60.157,0,0,0,6.638-.359,21.2,21.2,0,0,0,8.342-2.969,34.235,34.235,0,0,0,7.265-5.848,41.344,41.344,0,0,0,5.651-7.556,32.657,32.657,0,0,0,3.5-8.277A21.7,21.7,0,0,1,487.389,129.241Z"/>
</svg>
