<svg xmlns="http://www.w3.org/2000/svg" width="500" height="200" viewBox="0 0 500 200">
  <defs>
    <style>
      .cls-1 {
        fill-rule: evenodd;
      }
    </style>
  </defs>
  <path id="Adnan" class="cls-1" d="M92.981,122.1q-0.54-15.519-2.252-31.13T87.217,59.756a193.7,193.7,0,0,1-1.081-31.219,153.259,153.259,0,0,0-18.283,3.947Q58.938,35,49.752,37.507q3.6,1.257,7.3,2.693a11.224,11.224,0,0,1,5.674,4.664,6.124,6.124,0,0,1,.54,5.2,64.95,64.95,0,0,1-3.422,8.7,81.122,81.122,0,0,0-3.6,8.878q-1.081,2.876-2.612,7.9T50.112,86.665q-1.984,6.1-4.053,12.651t-4.143,12.2q-2.073,5.652-4.053,9.868a26.094,26.094,0,0,1-3.422,5.831,8.152,8.152,0,0,1-5.944,2.513,47.07,47.07,0,0,1-5.764-.537,8.884,8.884,0,0,1-3.242-1.167,14.2,14.2,0,0,1-2.612-2.243q-1.351-1.434-3.873-3.767,0.9,6.637,1.621,13.008a48.31,48.31,0,0,0,3.242,12.648,12.539,12.539,0,0,0,2.432,4.217,8.362,8.362,0,0,0,4.053,2.42,13.741,13.741,0,0,0,4.143.45,7.266,7.266,0,0,0,3.783-1.167,12.237,12.237,0,0,0,3.242-3.41,76.61,76.61,0,0,0,4.233-8.251q1.891-4.305,3.873-8.434a170.172,170.172,0,0,0,7.565-17.045,15.626,15.626,0,0,1,4.053,4.127,18.031,18.031,0,0,0,4.053,4.307,59.881,59.881,0,0,1,6.214-4.487,60.147,60.147,0,0,0,6.214-4.484,134.463,134.463,0,0,1,.36,19.646q-0.54,9.779-1.261,19.645,4.863-.182,9.727-0.627t9.727-1.346A130.256,130.256,0,0,0,92.981,122.1Zm-26.208-14.67q-2.254-2.065-4.773-4.048-2.525,1.981-4.863,3.958T52.273,111.3a209.282,209.282,0,0,0,7.115-20.6A208.792,208.792,0,0,1,66.5,70.1q0.9,10.437,2.522,20.691t2.522,20.691Q69.022,109.5,66.773,107.432ZM127.745,27.1q-1.443,18.352-1.261,36.434t0.541,36.255q0,2.88.09,7.377t0,9.266q-0.093,4.769-.36,9.086a33.626,33.626,0,0,1-.991,6.837,11.036,11.036,0,0,1-1.621,3.508,6.2,6.2,0,0,1-3.242,2.249,10.975,10.975,0,0,1-6.035-3.058,18.808,18.808,0,0,1-4.142-5.938,21.12,21.12,0,0,1-1.8-7.2,19.117,19.117,0,0,1,.721-7.017,11.578,11.578,0,0,1,3.422-5.4,9.27,9.27,0,0,1,6.395-2.16,55.159,55.159,0,0,0-2.792-5.217q-1.533-2.519-2.972-5.038a12.571,12.571,0,0,0-10,2.789,18.15,18.15,0,0,0-5.854,8.546,17.44,17.44,0,0,0-.63,3.6,24.384,24.384,0,0,0,.09,3.6q0.54,5.937,1.711,12.415a50.152,50.152,0,0,0,3.782,12.144,33.334,33.334,0,0,0,7.025,9.986,22.336,22.336,0,0,0,11.438,5.758,23.914,23.914,0,0,0,10.9-7.557,42.12,42.12,0,0,0,6.755-12.055,66.371,66.371,0,0,0,3.512-14.844q0.988-8,1.171-15.923t-0.18-15.2q-0.363-7.287-.36-12.685V60.2q0-8.636.36-17.453Zm111.587,70.17A18.863,18.863,0,0,0,236,93.309a31.216,31.216,0,0,0-4.323,3.6,44.225,44.225,0,0,1-4.323,3.778,34.9,34.9,0,0,0,3.6,3.779,21.481,21.481,0,0,1,3.422,3.958q1.98-1.977,4.143-3.778t4.143-3.779A12.717,12.717,0,0,1,239.332,97.267Zm16.482,36.974a32.291,32.291,0,0,1-7.475,2.159,43.569,43.569,0,0,1-8.016.54q-4.146-.089-8.286-0.09-3.065,0-6.664.27a56.277,56.277,0,0,1-7.115.09,47.776,47.776,0,0,1-6.755-.81,13.26,13.26,0,0,1-5.764-2.609,12.649,12.649,0,0,1-3.512-3.868,13.973,13.973,0,0,1-1.351-4.768q-0.9-5.937-1.8-11.605a54.225,54.225,0,0,1-.541-11.785,4.573,4.573,0,0,0,0-1.8,3.819,3.819,0,0,0-1.081-1.619,4.468,4.468,0,0,0-4.683-.99,23.234,23.234,0,0,0-6.394,3.148,58.364,58.364,0,0,0-7.205,5.758q-3.695,3.42-6.935,6.747t-5.854,6.117q-2.613,2.793-3.693,4.049a68.234,68.234,0,0,1,9.187-40.483q-4.863,3.42-9.547,7.017l-9.366,7.2a40.721,40.721,0,0,0-2.342,12.505q-0.181,6.388.09,12.864t0.45,12.865a45.552,45.552,0,0,1-1.44,12.684,3.612,3.612,0,0,0,.36,2.789,7.1,7.1,0,0,0,1.981,2.069,16.573,16.573,0,0,1,3.422,0q1.082,0,3.783-1.8A70,70,0,0,0,165.3,146.3q3.332-2.787,7.115-6.118t7.115-6.477q3.332-3.145,5.944-5.757l3.693-3.689h0.54a30.919,30.919,0,0,0-.09,7.827,34.283,34.283,0,0,0,1.891,8.007,29.27,29.27,0,0,0,3.783,7.2,21.622,21.622,0,0,0,5.584,5.4,12.818,12.818,0,0,0,5.043,1.709,43.6,43.6,0,0,0,6.3.45q3.242,0,6.484-.18t5.764-.18h6.665a60.633,60.633,0,0,0,6.664-.359,21.338,21.338,0,0,0,8.376-2.969,34.275,34.275,0,0,0,7.3-5.848,41.32,41.32,0,0,0,5.674-7.556,32.572,32.572,0,0,0,3.512-8.277A21.783,21.783,0,0,1,255.814,134.241ZM375.956,134a24.479,24.479,0,0,1-6.844,2.058,38.743,38.743,0,0,1-7.475.357q-3.876-.177-7.836-0.18-2.883,0-6.3.18t-6.845.09a40.768,40.768,0,0,1-6.664-.714,13.1,13.1,0,0,1-5.584-2.418,12.857,12.857,0,0,1-4.864-7.776,31.746,31.746,0,0,1-.45-10.464,51.178,51.178,0,0,1,2.432-10.817,55.121,55.121,0,0,1,3.782-8.853h-0.54q-4.146,2.5-8.286,4.74t-8.285,4.739a34.882,34.882,0,0,1-3.153-4.827q-1.35-2.5-2.431-5.009-5.944,1.788-12.429,4.383a69.99,69.99,0,0,0-12.248,6.347,50.851,50.851,0,0,0-10.177,8.673,26.4,26.4,0,0,0-6.035,11.355q-0.9,3.935-1.531,7.6t-1.351,7.6a10.049,10.049,0,0,0,2.342,8.4,9.615,9.615,0,0,0,7.926,3.579,43.335,43.335,0,0,0,19.633-5.1,47.988,47.988,0,0,0,15.671-12.966h0.36q0.54,1.611,1.081,3.576t1.081,3.936a25.259,25.259,0,0,0,1.351,3.753,9.5,9.5,0,0,0,1.891,2.862,12.4,12.4,0,0,0,6.034,3.489,40.913,40.913,0,0,0,7.835,1.251,76.86,76.86,0,0,0,8.286.09q4.141-.181,7.2-0.18t6.395,0.09a44.772,44.772,0,0,0,6.394-.27,22.209,22.209,0,0,0,8.826-2.682,37.148,37.148,0,0,0,7.926-5.721,33.438,33.438,0,0,0,6.034-7.6,25.274,25.274,0,0,0,3.152-8.493A20.185,20.185,0,0,1,375.956,134Zm-73.31-17.214q-2.7,3.872-5.674,7.377a45.873,45.873,0,0,1-6.484,6.3,24.983,24.983,0,0,1-8.016,4.228l-1.981-.36-1.441-1.619v-0.18a21.186,21.186,0,0,1,4.413-8.367,35.92,35.92,0,0,1,7.295-6.477,53.752,53.752,0,0,1,8.736-4.768,77.552,77.552,0,0,1,8.916-3.239A61.924,61.924,0,0,0,302.646,116.788ZM471.873,97.267a18.9,18.9,0,0,0-3.333-3.958,31.216,31.216,0,0,0-4.323,3.6,43.992,43.992,0,0,1-4.323,3.778,34.9,34.9,0,0,0,3.6,3.779,21.443,21.443,0,0,1,3.422,3.958q1.98-1.977,4.143-3.778t4.143-3.779A12.7,12.7,0,0,1,471.873,97.267Zm16.481,36.974a32.277,32.277,0,0,1-7.475,2.159,43.569,43.569,0,0,1-8.016.54q-4.144-.089-8.285-0.09-3.066,0-6.665.27a56.275,56.275,0,0,1-7.115.09,47.776,47.776,0,0,1-6.755-.81,13.265,13.265,0,0,1-5.764-2.609,12.662,12.662,0,0,1-3.512-3.868,14,14,0,0,1-1.351-4.768q-0.9-5.937-1.8-11.605a54.226,54.226,0,0,1-.54-11.785,4.573,4.573,0,0,0,0-1.8,3.839,3.839,0,0,0-1.081-1.619,4.469,4.469,0,0,0-4.683-.99,23.239,23.239,0,0,0-6.395,3.148,58.439,58.439,0,0,0-7.2,5.758q-3.693,3.42-6.935,6.747t-5.854,6.117q-2.613,2.793-3.692,4.049a68.243,68.243,0,0,1,9.186-40.483q-4.863,3.42-9.546,7.017l-9.367,7.2a40.751,40.751,0,0,0-2.342,12.505q-0.181,6.388.091,12.864t0.45,12.865a45.553,45.553,0,0,1-1.441,12.684,3.621,3.621,0,0,0,.36,2.789,7.115,7.115,0,0,0,1.981,2.069,16.583,16.583,0,0,1,3.423,0q1.08,0,3.782-1.8a70,70,0,0,0,6.035-4.588q3.33-2.787,7.115-6.118t7.114-6.477q3.331-3.145,5.944-5.757l3.693-3.689h0.54a30.919,30.919,0,0,0-.09,7.827,34.285,34.285,0,0,0,1.892,8.007,29.234,29.234,0,0,0,3.782,7.2,21.638,21.638,0,0,0,5.584,5.4,12.818,12.818,0,0,0,5.044,1.709,43.572,43.572,0,0,0,6.3.45q3.241,0,6.484-.18t5.764-.18h6.665a60.651,60.651,0,0,0,6.665-.359,21.334,21.334,0,0,0,8.375-2.969,34.275,34.275,0,0,0,7.3-5.848,41.32,41.32,0,0,0,5.674-7.556,32.612,32.612,0,0,0,3.513-8.277A21.786,21.786,0,0,1,488.354,134.241Z"/>
</svg>
